# xmcd CD database file
#
# Track frame offsets:
#	150
#	24053
#	40982
#	57411
#	71274
#	93662
#	112395
#	130503
#	144601
#	156155
#	175263
#	193916
#	210526
#	225657
#	237477
#	253377
#	272423
#	291154
#	311507
#	326004
#
# Disc length: 4566 seconds
#
# Revision: 2
# Processed by: cddbd v1.5.2PL0 Copyright (c) Steve Scherf et al.
# Submitted via: CDex 1.50
#
DISCID=2c11d414
DTITLE=Various Artist - Alternative Country Edition [CD1v2)
DYEAR=2009
DGENRE=Country
TTITLE0=Prefab Sprout - Cowboy Dreams
TTITLE1=The Divine Comedy - Mother Dear
TTITLE2=Cherry Ghost - 4am
TTITLE3=Joseph Parsons - Tell Me Hello
TTITLE4=Paolo Nutini - Candy (Radio Edit)
TTITLE5=Blue Mountain - She's A Wild One
TTITLE6=Reamonn - A Little Bit Of Sunshine
TTITLE7=Turin Brakes - They Can't Buy The Sunshine
TTITLE8=James Kirk - Nilsson
TTITLE9=Jimmy Nail - Crocodile Shoes
TTITLE10=It's Immaterial - Driving Away From Home (Jim's Tune)
TTITLE11=Black Rust - Everything's Fading
TTITLE12=Lee Hazlewood - Poet, Fool Or Bum
TTITLE13=Tennessee Ernie Ford - Sixteen Tons
TTITLE14=Joe Brown - Wishing Well
TTITLE15=Van Zant - Help Somebody (Album Version)
TTITLE16=Richard Thompson - Walking The Long Miles Home
TTITLE17=J.J. Cale - The Problem
TTITLE18=Willy Mason - Gotta Keep Walking
TTITLE19=Nitty Gritty Dirt Band - Mr. Bojangles
EXTD=YEAR: 2009
EXTT0=
EXTT1=
EXTT2=
EXTT3=
EXTT4=
EXTT5=
EXTT6=
EXTT7=
EXTT8=
EXTT9=
EXTT10=
EXTT11=
EXTT12=
EXTT13=
EXTT14=
EXTT15=
EXTT16=
EXTT17=
EXTT18=
EXTT19=
PLAYORDER=
